<svg id="Layer_1" data-name="Layer 1" xmlns="http://www.w3.org/2000/svg" viewBox="0 0 30 30"><defs><style>.cls-1{fill:#fff;}.cls-2{fill:#118acb;}.cls-3{fill:#33b44a;}.cls-4{fill:#39b54a;}</style></defs><path class="cls-1" d="M25.91,29.88H4.09a4,4,0,0,1-4-4V4.09a4,4,0,0,1,4-4H25.91a4,4,0,0,1,4,4V25.91A4,4,0,0,1,25.91,29.88Z" transform="translate(0 0)"/><path class="cls-2" d="M25.91,30H4.09A4.1,4.1,0,0,1,0,25.91V4.09A4.1,4.1,0,0,1,4.09,0H25.91A4.1,4.1,0,0,1,30,4.09V25.91A4.1,4.1,0,0,1,25.91,30ZM4.09.25A3.84,3.84,0,0,0,.25,4.09V25.91a3.84,3.84,0,0,0,3.84,3.84H25.91a3.84,3.84,0,0,0,3.84-3.84V4.09A3.84,3.84,0,0,0,25.91.25Z" transform="translate(0 0)"/><path class="cls-2" d="M17.15,6.07a1.1,1.1,0,0,0-.78-.31,1,1,0,0,0-1,.67,2.31,2.31,0,0,0-1.85-.8,3.05,3.05,0,0,0-2.36,1.09,3.82,3.82,0,0,0-.95,2.64A3.82,3.82,0,0,0,11.16,12a3,3,0,0,0,2.36,1.08,2.3,2.3,0,0,0,1.85-.79,1,1,0,0,0,1,.66,1.06,1.06,0,0,0,.78-.31,1,1,0,0,0,.3-.76v-5A1.12,1.12,0,0,0,17.15,6.07Zm-2.24,4.54a1.32,1.32,0,0,1-1.08.5,1.3,1.3,0,0,1-1.08-.5,2,2,0,0,1-.39-1.26,2,2,0,0,1,.39-1.25,1.4,1.4,0,0,1,2.16,0,2,2,0,0,1,.39,1.25A2,2,0,0,1,14.91,10.61Z" transform="translate(0 0)"/><path class="cls-2" d="M19.88,12.64A1.08,1.08,0,0,1,18,11.88v-9a1.06,1.06,0,0,1,.3-.76,1.12,1.12,0,0,1,1.55,0,1.06,1.06,0,0,1,.3.76v9a1.06,1.06,0,0,1-.3.76Z" transform="translate(0 0)"/><path class="cls-2" d="M27,6.72a3.72,3.72,0,0,0-5.24,0,3.75,3.75,0,0,0-1,2.66,3.71,3.71,0,0,0,1,2.65,3.42,3.42,0,0,0,2.61,1.07A3.48,3.48,0,0,0,27,12a3.71,3.71,0,0,0,1-2.64A3.7,3.7,0,0,0,27,6.72Zm-1.55,3.89a1.42,1.42,0,0,1-2.16,0,2.07,2.07,0,0,1-.38-1.26,2,2,0,0,1,.38-1.25,1.4,1.4,0,0,1,2.16,0,2,2,0,0,1,.39,1.25A2,2,0,0,1,25.44,10.61Z" transform="translate(0 0)"/><path class="cls-2" d="M9,5.88a4.72,4.72,0,0,0,1.14-2c0-.78-.5-1.17-1.48-1.17H3.46A1.34,1.34,0,0,0,2.52,3a.93.93,0,0,0-.34.75.92.92,0,0,0,.34.75,1.34,1.34,0,0,0,.94.3H7L2.46,10.73a1.85,1.85,0,0,0-.44,1c0,.86.57,1.29,1.7,1.29H9.1c.85,0,1.28-.37,1.28-1.09S10,10.89,9.1,10.89h-4L9,5.88Z" transform="translate(0 0)"/><path class="cls-3" d="M6.43,18.53H5.1V21.3H6.43a1.3,1.3,0,0,0,1-.39,1.4,1.4,0,0,0,.38-1,1.37,1.37,0,0,0-.38-1A1.33,1.33,0,0,0,6.43,18.53Z" transform="translate(0 0)"/><path class="cls-3" d="M13.11,21.14a1.21,1.21,0,0,0-1,.47,2,2,0,0,0,0,2.31,1.3,1.3,0,0,0,2,0,1.84,1.84,0,0,0,.36-1.16,1.82,1.82,0,0,0-.36-1.15A1.22,1.22,0,0,0,13.11,21.14Z" transform="translate(0 0)"/><path class="cls-4" d="M22.56,14.55H3.16A1.17,1.17,0,0,0,2,15.73V27.09a1.17,1.17,0,0,0,1.17,1.18H18.47a.73.73,0,0,1-.24-.54,1.52,1.52,0,0,1,.11-.53l.72-1.6-2-5a1.18,1.18,0,0,1-.09-.46.69.69,0,0,1,.28-.56.93.93,0,0,1,.58-.22.89.89,0,0,1,.9.64L20,23.4,21.31,20a.91.91,0,0,1,.91-.64.93.93,0,0,1,.57.22.69.69,0,0,1,.28.56,1.18,1.18,0,0,1-.09.46L20,27.79a1.51,1.51,0,0,1-.29.47h2.82a1.17,1.17,0,0,0,1.18-1.17V15.72A1.17,1.17,0,0,0,22.56,14.55ZM8.86,22.2A3.28,3.28,0,0,1,6.55,23H5.1v2.15a1,1,0,0,1-.28.75,1,1,0,0,1-.7.26,1,1,0,0,1-.71-.26,1,1,0,0,1-.27-.75V17.82a.91.91,0,0,1,1-1H6.48a3.46,3.46,0,0,1,2.41.87,2.94,2.94,0,0,1,1,2.27A3,3,0,0,1,8.86,22.2Zm7.6,2.9a.94.94,0,0,1-.28.7.92.92,0,0,1-.71.29,1,1,0,0,1-.93-.61,2.16,2.16,0,0,1-1.71.73,2.83,2.83,0,0,1-2.19-1,3.84,3.84,0,0,1,0-4.89,2.81,2.81,0,0,1,2.19-1,2.13,2.13,0,0,1,1.71.73,1,1,0,0,1,.93-.61,1,1,0,0,1,.71.29,1,1,0,0,1,.28.7Z" transform="translate(0 0)"/></svg>